<?xml version="1.0" standalone="no"?>
<!DOCTYPE svg PUBLIC "-//W3C//DTD SVG 20010904//EN"
 "http://www.w3.org/TR/2001/REC-SVG-20010904/DTD/svg10.dtd">
<svg version="1.0" xmlns="http://www.w3.org/2000/svg"
 width="1404.000000pt" height="332.000000pt" viewBox="0 0 1404.000000 332.000000"
 preserveAspectRatio="xMidYMid meet">

<g transform="translate(0.000000,332.000000) scale(0.100000,-0.100000)"
fill="#000000" stroke="none">
<path d="M0 1660 l0 -1660 7020 0 7020 0 0 1660 0 1660 -7020 0 -7020 0 0
-1660z m2312 1325 c56 -39 95 -113 82 -156 -14 -46 -28 -40 -36 15 -18 126
-107 155 -266 88 -378 -159 -768 -753 -1042 -1587 -53 -162 -83 -215 -122
-215 -37 0 -40 31 -33 309 7 267 -4 557 -26 703 -47 313 -144 447 -302 417
-70 -13 -117 -46 -218 -152 -47 -50 -89 -86 -92 -80 -10 17 57 106 138 181
134 125 281 181 364 138 161 -84 253 -482 237 -1021 -3 -115 -8 -239 -11 -275
-5 -63 -4 -61 48 95 307 913 637 1406 1042 1557 36 13 71 17 122 15 61 -2 78
-7 115 -32z m3217 -24 c8 -14 1 -37 -29 -100 -22 -46 -40 -84 -40 -86 0 -5 69
2 229 22 315 39 515 -11 589 -147 20 -39 23 -55 20 -120 -5 -93 -43 -178 -127
-282 -223 -280 -628 -518 -993 -583 -54 -10 -98 -20 -98 -24 0 -3 -5 -58 -10
-121 -30 -358 76 -633 281 -730 82 -38 129 -46 168 -26 27 15 31 15 39 0 39
-70 -121 -104 -232 -50 -195 96 -319 394 -320 772 l-1 152 -105 4 c-129 6
-191 29 -216 80 -26 55 -6 105 73 188 71 76 156 137 271 194 39 20 72 42 72
49 0 23 68 223 121 360 76 190 216 466 242 476 25 10 52 -2 66 -28z m4546
-238 c67 -23 137 -93 161 -164 68 -196 -49 -482 -231 -565 -67 -31 -154 -41
-213 -25 -61 17 -43 33 29 25 51 -6 66 -3 112 20 131 64 246 259 247 417 0
112 -70 213 -169 243 -239 71 -493 -98 -664 -439 -139 -278 -172 -589 -97
-904 44 -181 139 -317 253 -359 74 -28 160 -29 203 -3 96 58 148 229 129 425
-6 70 -9 76 -29 76 -33 0 -170 -37 -237 -64 -41 -17 -60 -21 -68 -13 -19 19
-12 56 15 73 77 51 322 78 484 55 73 -11 205 -45 251 -65 13 -5 18 0 23 25 10
53 76 210 119 284 55 95 142 181 192 191 47 9 80 -8 112 -55 32 -47 30 -131
-3 -131 -7 0 -19 10 -25 23 -65 126 -170 93 -250 -78 -44 -94 -78 -222 -86
-321 -8 -97 0 -124 34 -124 58 0 153 139 249 363 38 91 61 114 95 96 27 -14
31 -54 14 -165 -22 -148 -6 -245 37 -229 26 10 69 84 151 255 l73 155 -4 73
c-4 63 -1 79 23 127 27 56 84 125 103 125 6 0 18 -7 27 -16 22 -23 13 -59 -41
-169 -24 -49 -44 -96 -44 -102 0 -18 41 -16 70 4 14 9 50 39 81 65 57 50 76
57 97 36 27 -27 11 -68 -72 -178 -57 -76 -133 -221 -161 -305 -36 -108 -27
-224 22 -277 35 -38 100 -16 166 57 49 54 147 217 224 375 l86 175 -2 79 c-2
67 2 87 24 132 27 56 84 124 103 124 6 0 18 -7 27 -16 22 -23 13 -59 -41 -169
-24 -49 -44 -96 -44 -102 0 -18 41 -16 70 4 14 9 51 39 82 66 57 49 82 56 101
26 16 -26 2 -58 -71 -161 -144 -202 -214 -399 -183 -514 34 -126 119 -125 222
3 66 82 171 266 201 352 81 231 212 400 312 401 20 0 40 -12 67 -39 34 -33 39
-45 39 -83 0 -24 -6 -53 -14 -63 -13 -18 -14 -17 -31 11 -10 16 -30 41 -44 57
-57 62 -143 14 -206 -117 -63 -131 -113 -384 -86 -434 40 -75 148 47 253 283
61 139 87 172 119 155 27 -15 34 -56 21 -132 -7 -38 -12 -105 -12 -149 0 -123
26 -150 77 -81 15 20 31 39 35 42 4 3 12 28 18 55 64 295 245 525 329 419 13
-16 21 -41 21 -63 0 -64 -43 -83 -72 -31 -20 35 -36 37 -70 11 -68 -54 -128
-239 -135 -416 -4 -108 -2 -123 16 -152 47 -75 113 -16 181 161 35 89 93 320
119 472 29 167 67 219 97 133 10 -30 10 -55 -3 -135 -16 -110 -14 -376 6 -609
30 -341 -47 -656 -200 -820 -86 -91 -183 -139 -283 -140 -60 0 -78 4 -118 28
-67 39 -91 78 -96 153 -3 51 0 72 20 116 56 120 159 224 333 338 81 52 224
124 233 116 9 -10 -12 -26 -94 -73 -105 -59 -198 -142 -277 -248 -122 -163
-168 -304 -116 -356 18 -18 30 -21 84 -17 83 5 154 47 265 158 96 95 146 181
177 305 24 95 24 374 0 535 -10 63 -21 164 -24 224 l-6 110 -33 -125 c-54
-206 -128 -363 -189 -400 -76 -48 -153 -8 -174 89 -6 29 -11 60 -11 68 0 13
-4 13 -30 -1 -39 -20 -94 -19 -116 2 -29 30 -54 96 -54 148 0 68 -13 86 -31
44 -26 -64 -126 -205 -178 -252 -44 -39 -60 -47 -92 -47 -44 0 -66 24 -76 83
l-6 38 -34 -60 c-39 -69 -118 -151 -167 -175 -49 -23 -117 -21 -150 5 -50 40
-70 94 -71 194 0 107 29 206 104 351 l48 90 -64 0 -63 -1 -66 -150 c-145 -327
-219 -442 -318 -489 -49 -23 -117 -21 -150 5 -50 40 -70 94 -71 194 0 107 29
206 104 351 l48 90 -64 0 -63 -1 -61 -140 c-94 -214 -114 -250 -152 -274 -44
-27 -101 -27 -127 -1 -30 30 -51 88 -57 161 l-6 67 -30 -57 c-71 -133 -153
-238 -208 -267 -40 -20 -83 -18 -105 7 -16 18 -19 37 -19 114 l0 93 -35 5
c-19 3 -66 13 -105 21 -65 15 -255 22 -255 11 0 -3 9 -38 20 -77 71 -256 -35
-471 -238 -486 -127 -9 -248 42 -342 146 -181 197 -248 596 -154 920 103 356
380 670 659 747 72 19 211 19 270 -2z m-5698 -269 c10 -28 -22 -98 -105 -227
-81 -125 -99 -156 -124 -217 l-15 -35 121 0 c116 0 175 -13 162 -34 -3 -4 -43
-11 -88 -14 -108 -8 -225 -44 -249 -77 -39 -52 -110 -392 -125 -588 -11 -159
29 -352 84 -407 l27 -27 -25 3 c-34 5 -82 88 -111 192 -16 60 -23 119 -27 222
-5 160 10 288 58 484 17 67 30 124 30 127 0 2 -17 -3 -37 -12 -109 -48 -143
-48 -143 1 0 35 40 60 135 85 76 21 85 26 96 54 125 312 232 486 301 486 17 0
31 -7 35 -16z m4370 5 c21 -21 -12 -95 -108 -242 -60 -90 -110 -182 -123 -222
-6 -19 -1 -20 107 -20 73 0 123 -5 145 -14 43 -18 25 -31 -43 -31 -57 0 -202
-33 -244 -55 -34 -17 -50 -54 -84 -195 -51 -207 -61 -286 -62 -470 0 -156 3
-183 23 -249 13 -40 34 -84 48 -98 28 -28 29 -33 10 -33 -26 0 -74 71 -99 149
-34 103 -51 251 -44 376 7 115 47 340 76 435 11 35 19 66 17 67 -2 2 -25 -6
-51 -18 -75 -33 -102 -39 -121 -25 -12 10 -15 20 -10 40 8 31 80 69 153 81 22
3 48 12 56 18 8 7 39 71 69 142 112 272 229 420 285 364z m-6496 -349 c67 -36
65 -159 -6 -355 -61 -168 -83 -250 -95 -359 -20 -171 19 -235 89 -149 26 32
31 34 31 17 0 -24 -37 -82 -61 -97 -9 -5 -28 -7 -43 -3 -80 20 -79 228 4 689
24 133 26 200 5 217 -45 38 -133 -48 -209 -205 -79 -160 -88 -204 -92 -439 -4
-211 -12 -246 -53 -246 -25 0 -46 54 -62 158 -7 45 -15 82 -18 82 -3 0 -22
-32 -41 -71 -37 -77 -115 -166 -170 -194 -19 -10 -54 -19 -77 -19 -143 -3
-172 207 -72 520 54 168 114 245 157 202 26 -26 13 -86 -43 -198 -82 -163
-105 -240 -105 -349 0 -100 12 -139 46 -147 59 -15 184 118 269 285 27 54 27
56 15 130 -18 111 -48 202 -78 233 -22 24 -23 28 -9 34 47 18 113 -70 157
-208 l33 -102 23 94 c58 241 154 413 262 469 40 22 112 27 143 11z m1518 -15
c61 -52 51 -159 -37 -396 -77 -207 -106 -418 -64 -469 23 -29 55 -20 79 21 20
34 37 39 27 7 -29 -96 -92 -127 -137 -67 -14 20 -20 49 -24 112 -6 97 4 197
53 486 38 229 40 250 21 276 -36 48 -136 -39 -211 -183 -79 -154 -112 -325
-102 -527 7 -131 -2 -167 -41 -173 -30 -4 -48 34 -67 143 -9 48 -17 89 -18 91
-2 1 -16 -22 -32 -52 -79 -150 -223 -237 -314 -190 -44 23 -81 69 -106 130
l-23 56 -37 -47 c-80 -104 -222 -184 -301 -169 -145 28 -153 219 -20 491 66
136 133 222 198 254 41 20 51 22 77 11 40 -16 59 -74 39 -116 -21 -43 -46 -43
-64 0 -26 61 -72 42 -135 -56 -95 -147 -158 -443 -108 -505 6 -8 33 -13 62
-13 80 0 162 64 254 197 19 27 22 44 22 140 0 212 67 352 184 384 78 22 143
-43 133 -132 -13 -111 -138 -269 -214 -269 -11 0 3 19 44 59 33 33 70 80 83
106 29 60 32 122 5 141 -25 19 -29 18 -65 -12 -45 -38 -68 -90 -86 -196 -40
-232 15 -418 126 -418 66 0 163 92 228 217 l41 78 -14 81 c-20 112 -49 202
-76 230 -27 29 -19 41 18 28 44 -15 89 -85 124 -194 18 -55 36 -100 40 -100 3
0 9 21 13 46 3 25 22 94 41 152 83 247 187 371 312 372 30 0 50 -7 72 -25z
m-2123 -20 c15 -23 15 -27 -3 -62 -35 -71 -96 -91 -109 -37 -9 34 3 72 31 100
31 31 60 31 81 -1z m6331 -7 c76 -46 141 -153 163 -266 18 -90 8 -268 -20
-357 -48 -151 -141 -289 -217 -321 -45 -19 -100 -17 -150 6 -53 24 -98 91
-115 171 l-12 58 -48 -82 c-82 -138 -155 -197 -243 -197 -64 0 -94 21 -126 88
-51 103 -21 277 81 477 l47 91 -62 0 -61 0 -85 -190 c-86 -196 -160 -330 -207
-379 -55 -58 -112 -87 -167 -87 -64 0 -94 21 -126 88 -51 102 -21 278 81 477
l47 91 -62 0 -62 0 -82 -187 c-80 -181 -100 -213 -148 -238 -32 -17 -89 -13
-109 6 -28 28 -53 95 -54 143 -1 25 -5 53 -9 63 -6 15 -10 12 -24 -19 -38 -79
-121 -196 -174 -244 -51 -46 -60 -51 -97 -48 -35 3 -43 8 -59 38 -68 132 120
598 278 687 59 34 90 30 136 -16 34 -33 39 -45 39 -83 0 -24 -6 -53 -14 -63
-13 -18 -14 -17 -31 11 -10 16 -30 41 -44 57 -57 62 -143 14 -206 -117 -64
-133 -113 -383 -86 -434 40 -75 148 47 253 283 61 139 87 172 119 155 27 -15
34 -56 21 -132 -15 -85 -16 -223 -2 -249 28 -52 61 -10 174 219 l85 173 -6 68
c-5 59 -2 76 20 125 48 104 99 153 132 126 26 -21 17 -63 -35 -170 -33 -67
-47 -107 -41 -113 18 -18 60 3 133 64 83 70 111 74 116 19 2 -30 -8 -50 -69
-135 -129 -182 -210 -385 -194 -490 3 -22 16 -58 28 -80 20 -35 27 -40 64 -43
37 -3 45 1 91 46 72 70 147 191 251 401 l90 182 -6 68 c-5 59 -2 76 20 125 48
104 99 153 132 126 26 -21 17 -63 -35 -169 -27 -56 -50 -106 -50 -112 0 -13
37 -11 63 2 12 7 51 36 86 66 76 64 104 68 109 13 2 -30 -8 -50 -69 -135 -129
-182 -210 -385 -194 -490 3 -22 16 -58 28 -80 19 -34 28 -40 60 -43 65 -6 131
62 242 247 63 105 75 148 81 298 14 323 167 513 331 411z m5548 -168 c41 -41
41 -111 -1 -195 -47 -96 -163 -200 -191 -171 -4 3 19 29 49 56 94 83 136 202
88 245 -28 25 -62 8 -99 -50 -40 -64 -56 -148 -56 -305 0 -118 3 -141 22 -182
71 -155 222 -93 345 142 31 61 68 91 68 56 0 -28 -49 -127 -94 -190 -119 -167
-263 -193 -352 -63 -45 65 -64 158 -64 310 0 197 48 312 150 365 55 28 93 23
135 -18z"/>
<path d="M5676 2769 c-59 -9 -177 -39 -227 -57 -21 -8 -36 -34 -78 -132 -64
-148 -153 -382 -148 -387 2 -2 56 10 119 26 127 33 307 56 322 41 14 -14 -30
-26 -124 -34 -93 -7 -182 -26 -276 -56 l-60 -20 -37 -128 c-35 -122 -80 -322
-74 -328 5 -5 128 25 212 53 465 151 956 614 911 858 -9 44 -56 100 -108 126
-85 43 -279 60 -432 38z"/>
<path d="M4990 2039 c-95 -64 -154 -121 -191 -184 -51 -88 -30 -152 55 -174
51 -12 125 -14 142 -3 7 4 19 59 29 122 9 63 25 152 36 198 10 45 19 85 19 87
0 11 -20 1 -90 -46z"/>
<path d="M7845 2026 c-61 -27 -116 -115 -135 -215 -15 -82 -3 -89 39 -23 39
60 93 112 116 112 25 0 25 -18 0 -34 -42 -27 -94 -117 -125 -213 -29 -90 -29
-94 -14 -133 33 -82 115 -120 218 -101 33 6 62 9 64 7 10 -10 -53 -39 -93 -44
-60 -6 -120 17 -173 68 l-42 41 0 -74 c0 -183 93 -298 198 -243 64 34 122 125
153 242 40 152 24 424 -31 534 -39 76 -109 107 -175 76z"/>
</g>
</svg>
